<?xml version="1.0" encoding="utf-8"?>
<!-- Generator: Adobe Illustrator 23.0.2, SVG Export Plug-In . SVG Version: 6.00 Build 0)  -->
<svg version="1.1" id="레이어_1" xmlns="http://www.w3.org/2000/svg" xmlns:xlink="http://www.w3.org/1999/xlink" x="0px"
	 y="0px" viewBox="0 0 151 151" style="enable-background:new 0 0 151 151;" xml:space="preserve">
<style type="text/css">
	.st0{fill:#FFFFFF;}
	.st1{fill:#CCCCCC;}
</style>
<circle class="st0" cx="76.5" cy="75.5" r="72"/>
<g id="XMLID_2776_">
	<g id="XMLID_2922_">
		<path id="XMLID_2933_" class="st1" d="M61.8,81.3l14.5,14.5l-18.1,18.1c-4,4-10.5,4-14.5,0v0c-4-4-4-10.5,0-14.5L61.8,81.3z"/>
		
			<rect id="XMLID_2930_" x="61.7" y="84" transform="matrix(-0.7071 -0.7071 0.7071 -0.7071 62.223 197.1534)" class="st1" width="20.5" height="3.5"/>
		<g id="XMLID_2925_">
			<path id="XMLID_2927_" class="st1" d="M113.7,98.5L91.3,76.1L80.1,87.3l22.4,22.4c3.1,3.1,8.1,3.1,11.2,0
				C116.8,106.6,116.8,101.6,113.7,98.5z M109.6,105.6c-1.4,1.4-3.6,1.4-4.9,0c-1.4-1.4-1.4-3.6,0-4.9c1.4-1.4,3.6-1.4,4.9,0
				C110.9,102.1,110.9,104.2,109.6,105.6z"/>
			<path id="XMLID_2926_" class="st1" d="M81.5,66.4l-4.7-4.7c3.1-7.5,1.6-16.4-4.5-22.5c-5.5-5.5-13.2-7.2-20.2-5.3l12.6,12.6
				L50.5,60.8L37.9,48.2c-1.9,7-0.2,14.7,5.3,20.2c6.1,6.1,15,7.6,22.5,4.5l4.7,4.7L81.5,66.4z"/>
		</g>
		
			<rect id="XMLID_2924_" x="86.6" y="49" transform="matrix(-0.7071 -0.7071 0.7071 -0.7071 103.728 179.9613)" class="st1" width="5" height="39"/>
		<polygon id="XMLID_2923_" class="st1" points="109.1,44.5 113.1,48.6 102.4,63.4 94.2,55.3 		"/>
	</g>
</g>
</svg>
